<svg xmlns="http://www.w3.org/2000/svg" height="512pt" viewBox="0 -16 512 512" width="512pt">

<g id="Master_Layer_2"></g><g id="Layer_1"><g><g><g><path clip-rule="evenodd" d="m246.261 348.651c-.886 0-1.775-.204-2.592-.616l-3.702-1.866c-42.459-21.399-92.468-24.435-137.205-8.331-1.765.635-3.728.372-5.263-.707s-2.448-2.837-2.448-4.713v-203.327c0-2.429 1.524-4.597 3.809-5.42 23.846-8.584 48.763-12.158 74.06-10.622s49.599 8.098 72.231 19.504l3.702 1.865c1.943.979 3.168 2.969 3.168 5.144v203.328c0 1.999-1.037 3.856-2.74 4.904-.922.57-1.97.857-3.02.857zm-84.735-32.62c3.79 0 7.586.115 11.395.346 23.572 1.432 46.282 7.228 67.58 17.24v-190.506l-.534-.269c-41.26-20.794-89.644-24.251-133.396-9.651v191.22c17.862-5.573 36.278-8.38 54.955-8.38z" fill="#212121" fill-rule="evenodd"></path></g><g><g><path clip-rule="evenodd" d="m288.973 175.941c-2.405 0-4.648-1.518-5.458-3.924-1.015-3.015.606-6.282 3.621-7.297 20.398-6.867 41.372-8.665 62.337-5.345 3.142.497 5.285 3.448 4.788 6.59s-3.446 5.286-6.59 4.788c-19.111-3.027-38.242-1.383-56.86 4.885-.609.205-1.228.303-1.838.303z" fill="#212121" fill-rule="evenodd"></path></g><g><path clip-rule="evenodd" d="m289.116 213.808c-2.405 0-4.648-1.518-5.458-3.924-1.015-3.015.606-6.282 3.621-7.297 20.398-6.867 41.371-8.665 62.337-5.345 3.142.497 5.285 3.448 4.788 6.59s-3.446 5.287-6.59 4.788c-19.111-3.026-38.241-1.383-56.859 4.885-.61.206-1.23.303-1.839.303z" fill="#212121" fill-rule="evenodd"></path></g><g><path clip-rule="evenodd" d="m289.258 251.677c-2.405 0-4.648-1.518-5.458-3.924-1.015-3.015.606-6.282 3.621-7.297 20.397-6.867 41.371-8.665 62.337-5.345 3.142.497 5.286 3.448 4.788 6.59-.497 3.142-3.447 5.286-6.59 4.788-19.111-3.026-38.242-1.383-56.86 4.885-.609.205-1.229.303-1.838.303z" fill="#212121" fill-rule="evenodd"></path></g><g><path clip-rule="evenodd" d="m289.401 289.545c-2.405 0-4.648-1.518-5.458-3.924-1.015-3.015.607-6.282 3.621-7.297 20.398-6.866 41.371-8.665 62.337-5.345 3.142.497 5.285 3.448 4.788 6.59s-3.447 5.285-6.59 4.788c-19.11-3.027-38.241-1.383-56.859 4.885-.61.205-1.23.303-1.839.303z" fill="#212121" fill-rule="evenodd"></path></g></g><g><g><path clip-rule="evenodd" d="m203.55 175.941c-.609 0-1.229-.098-1.838-.303-18.618-6.268-37.749-7.911-56.86-4.885-3.141.496-6.092-1.646-6.59-4.788-.497-3.142 1.646-6.092 4.788-6.59 20.966-3.32 41.939-1.522 62.337 5.345 3.015 1.015 4.636 4.282 3.621 7.297-.809 2.405-3.053 3.924-5.458 3.924z" fill="#212121" fill-rule="evenodd"></path></g><g><path clip-rule="evenodd" d="m203.408 213.808c-.609 0-1.229-.098-1.838-.303-18.618-6.268-37.749-7.911-56.86-4.885-3.143.497-6.092-1.646-6.59-4.788s1.646-6.092 4.788-6.59c20.966-3.32 41.939-1.522 62.337 5.345 3.015 1.015 4.636 4.282 3.621 7.297-.81 2.406-3.053 3.924-5.458 3.924z" fill="#212121" fill-rule="evenodd"></path></g><g><path clip-rule="evenodd" d="m203.265 251.677c-.609 0-1.229-.098-1.838-.303-18.618-6.268-37.748-7.911-56.86-4.885-3.141.497-6.092-1.646-6.59-4.788s1.646-6.092 4.788-6.59c20.966-3.32 41.939-1.521 62.337 5.345 3.015 1.015 4.636 4.282 3.621 7.297-.809 2.405-3.052 3.924-5.458 3.924z" fill="#212121" fill-rule="evenodd"></path></g><g><path clip-rule="evenodd" d="m203.123 289.545c-.609 0-1.229-.098-1.838-.303-18.618-6.268-37.749-7.912-56.86-4.885-3.143.497-6.092-1.646-6.59-4.788-.497-3.142 1.646-6.092 4.788-6.59 20.966-3.319 41.939-1.521 62.337 5.345 3.015 1.015 4.636 4.282 3.621 7.297-.81 2.405-3.053 3.923-5.458 3.924z" fill="#212121" fill-rule="evenodd"></path></g></g><g><path clip-rule="evenodd" d="m246.264 380.776c-6.794 0-13.59-1.616-19.651-4.673-3.932-1.982-8.011-3.804-12.123-5.414-16.704-6.556-34.966-10.021-52.817-10.021-16.702 0-33.141 2.87-48.859 8.529-.067.024-.134.047-.202.069l-29.915 9.534c-4.743 1.665-10.017.938-14.133-1.956-4.147-2.916-6.623-7.682-6.623-12.75v-213.495c0-2.809 2.026-5.208 4.796-5.679l33.112-5.622c3.134-.532 6.11 1.578 6.643 4.715.533 3.136-1.578 6.11-4.715 6.643l-28.316 4.807v208.63c0 1.905 1.209 2.961 1.729 3.326 1.1.773 2.456.955 3.721.501.067-.024.134-.047.201-.068l29.902-9.53c16.942-6.087 34.66-9.173 52.66-9.173 19.277 0 38.995 3.74 57.022 10.815 4.441 1.739 8.852 3.709 13.105 5.853 4.461 2.25 9.462 3.44 14.464 3.44 4.999 0 9.999-1.189 14.46-3.439 4.254-2.144 8.665-4.114 13.111-5.855 18.023-7.074 37.739-10.814 57.014-10.814 18.002 0 35.721 3.087 52.663 9.173l29.902 9.53c.067.021.135.044.201.068 1.264.455 2.619.273 3.718-.5 1.098-.772 1.728-1.985 1.728-3.327v-208.63l-28.313-4.808c-3.136-.533-5.247-3.507-4.715-6.643.533-3.136 3.506-5.247 6.643-4.715l33.108 5.622c2.77.47 4.796 2.87 4.796 5.679v213.494c0 5.069-2.476 9.836-6.624 12.752-4.115 2.893-9.389 3.62-14.13 1.954l-29.914-9.534c-.068-.022-.135-.044-.203-.069-15.718-5.659-32.158-8.529-48.862-8.529-17.849 0-36.11 3.465-52.809 10.019-4.117 1.612-8.196 3.434-12.128 5.416-6.061 3.059-12.855 4.675-19.647 4.675z" fill="#212121" fill-rule="evenodd"></path></g><g><path clip-rule="evenodd" d="m246.266 348.652c-2.106 0-4.135-1.159-5.148-3.169-1.432-2.841-.29-6.304 2.551-7.736l3.702-1.865c22.632-11.406 46.934-17.968 72.231-19.505 22.582-1.371 44.864 1.33 66.349 8.032v-191.22c-43.752-14.599-92.136-11.143-133.395 9.651l-3.702 1.865c-2.841 1.432-6.305.289-7.736-2.551-1.431-2.841-.289-6.304 2.551-7.736l3.702-1.865c22.632-11.406 46.934-17.968 72.231-19.504 25.298-1.535 50.215 2.038 74.06 10.622 2.285.823 3.809 2.991 3.809 5.42v203.328c0 1.876-.913 3.634-2.448 4.713-1.535 1.078-3.498 1.342-5.263.707-44.736-16.105-94.745-13.068-137.204 8.331l-3.702 1.866c-.831.418-1.716.616-2.588.616z" fill="#212121" fill-rule="evenodd"></path></g></g></g></g>

</svg>
