<svg id="fi_9071900" height="512" viewBox="0 0 64 64" width="512" xmlns="http://www.w3.org/2000/svg"><path d="m49.00001 5c0-1.10455-.89545-2-2-2h-42c-1.10455 0-2 .89545-2 2v4.25745h46z" fill="#fcb64d"></path><path d="m5.00001 7c0-1.10455.89545-2 2-2h42c0-1.10455-.89545-2-2-2h-42c-1.10455 0-2 .89545-2 2v4.25745h2z" fill="#f78c1e"></path><path d="m3.00001 9.25745v49.74255c0 1.10455.89545 2 2 2h42c1.10455 0 2-.89545 2-2v-49.74255z" fill="#eee"></path><path d="m49.00001 11.25745v-2h-46v49.74255c0 1.10455.89545 2 2 2v-5.7426c0-24.3005 19.69945-43.99995 43.99995-43.99995h.00004z" fill="#e0e0e0"></path><path d="m44.122 19.167h10v6.059h-10z" fill="#faa629" transform="matrix(.707 .707 -.707 .707 30.083 -28.233)"></path><path d="m51.0129 21.80381 2.78649 2.78646 1-1-7.07111-7.07104-4.28461 4.28461 1 1c1.81404-1.81404 4.75518-1.81405 6.56922-.00002z" fill="#f78c1e"></path><path d="m43.44367 20.80383-24.04162 24.04163v.00006l3.53552 3.53546 24.04162-24.04162z" fill="#f47c20"></path><path d="m19.726 35.628h34v5h-34z" fill="#f78c1e" transform="matrix(.707 -.707 .707 .707 -16.204 37.136)"></path><path d="m60.41419 15.14697-4.24261-4.24261c-.78107-.78107-2.04736-.78107-2.82843 0l-5.61481 5.61481 7.07104 7.07111 5.61481-5.61487c.78107-.78101.78107-2.04736 0-2.82843z" fill="#ec417a"></path><path d="m49.10054 17.14697c3.12418-3.12418 8.18947-3.12418 11.31365 0 .12585.12586.22388.26728.30914.41425.44415-.7652.34607-1.75903-.30914-2.41425l-4.24261-4.24261c-.78105-.78105-2.04738-.78105-2.82843 0l-5.61481 5.61481 1 1z" fill="#d81b61"></path><path d="m17.28071 54.03784 9.19238-2.12128-7.07104-7.07104z" fill="#434343"></path><path d="m24.53982 51.98329.30827.30827 1.625-.375-7.07104-7.07104-2.12134 9.19232.48749-.11249c.71126-3.08205 4.53501-4.17867 6.77162-1.94206z" fill="#212121"></path><g><path d="m49 34.87109c-.55225 0-1 .44775-1 1v23.12891c0 .55127-.44873 1-1 1h-42c-.55127 0-1-.44873-1-1v-48.74268h45c.55225 0 1-.44775 1-1v-4.25732c0-1.6543-1.3457-3-3-3h-42c-1.6543 0-3 1.3457-3 3v54c0 1.6543 1.3457 3 3 3h42c1.6543 0 3-1.3457 3-3v-23.12891c0-.55225-.44775-1-1-1zm-44-30.87109h42c.55127 0 1 .44873 1 1v3.25732h-44v-3.25732c0-.55127.44873-1 1-1z"></path><path d="m61.12109 14.43994-4.24268-4.24268c-1.16992-1.16992-3.07227-1.16992-4.24219 0l-33.9414 33.94141c-.13379.13228-.20719.30845-.26758.48242l-2.12109 9.19238c-.07715.33594.02393.68799.26758.93164.24374.24523.59963.34434.93213.26758l9.19238-2.12158c.17381-.0605.34974-.1337.48193-.26758l33.94092-33.94091c.56689-.56641.87891-1.31982.87891-2.12158 0-.80127-.31201-1.55469-.87891-2.12109zm-34.64795 36.0625-2.1217-2.12146 22.62769-22.62769 2.12146 2.1217-22.62744 22.62744zm-3.53577-3.53552-2.12146-2.12122 22.62793-22.62793 2.12122 2.12146zm-2.96692-.13861 4.52002 4.51971-5.87573 1.35608zm30.54419-20.36737-5.65674-5.65723 2.87061-2.87061 5.65674 5.65723zm9.19238-9.19238-4.90771 4.90771-5.65674-5.65723 4.90771-4.90771c.38965-.38965 1.02441-.38965 1.41406 0l4.24268 4.24268c.38965.39014.38965 1.02441 0 1.41455z"></path><path d="m39.90088 16.41602c0-.55225-.44775-1-1-1h-29.80176c-.55225 0-1 .44775-1 1s.44775 1 1 1h29.80176c.55225 0 1-.44775 1-1z"></path><path d="m33.90088 22.19727c0-.55225-.44775-1-1-1h-23.80176c-.55225 0-1 .44775-1 1s.44775 1 1 1h23.80176c.55225 0 1-.44775 1-1z"></path><path d="m27.90088 27.97852c0-.55225-.44775-1-1-1h-17.80176c-.55225 0-1 .44775-1 1s.44775 1 1 1h17.80176c.55225 0 1-.44775 1-1z"></path><path d="m22.90088 33.75928c0-.55225-.44775-1-1-1h-12.80176c-.55225 0-1 .44775-1 1s.44775 1 1 1h12.80176c.55225 0 1-.44775 1-1z"></path><path d="m9.09912 38.54053c-.55225 0-1 .44775-1 1s.44775 1 1 1h7.80176c.55225 0 1-.44775 1-1s-.44775-1-1-1z"></path></g></svg>