<svg id="fi_2108958" enable-background="new 0 0 512 512" height="512" viewBox="0 0 512 512" width="512" xmlns="http://www.w3.org/2000/svg"><path d="m406 504.5h-300c-27.614 0-50-22.386-50-50v-397c0-27.614 22.386-50 50-50h300c27.614 0 50 22.386 50 50v397c0 27.614-22.386 50-50 50z" fill="#f5f5fc"></path><path d="m96 454.5v-397c0-27.614 22.386-50 50-50h-40c-27.614 0-50 22.386-50 50v397c0 27.614 22.386 50 50 50h40c-27.614 0-50-22.386-50-50z" fill="#ebebf5"></path><path d="m193.782 83.358-49.498 49.497-14.142-14.142c-7.81-7.81-20.474-7.81-28.284 0-7.81 7.81-7.81 20.474 0 28.284l28.284 28.284c7.81 7.81 20.474 7.81 28.284 0l63.64-63.64c7.81-7.81 7.81-20.474 0-28.284-7.81-7.81-20.474-7.81-28.284.001z" fill="#95e8c8"></path><path d="m127.011 139.017c4.523-4.523 10.379-6.898 16.304-7.132l-13.172-13.172c-7.81-7.81-20.474-7.81-28.284 0-7.81 7.81-7.81 20.474 0 28.284l20.968 20.968c-5.048-9.266-3.657-21.108 4.184-28.948z" fill="#82d9b6"></path><path d="m179.64 336.718-17.678 17.678-17.678-17.678c-7.81-7.81-20.474-7.81-28.284 0-7.81 7.81-7.81 20.474 0 28.284l17.678 17.678-17.678 17.678c-7.81 7.81-7.811 20.474 0 28.284 7.81 7.81 20.474 7.81 28.284 0l17.678-17.678 17.678 17.678c7.81 7.81 20.474 7.81 28.284 0 7.81-7.81 7.81-20.474 0-28.284l-17.678-17.678 17.678-17.678c7.81-7.81 7.81-20.474 0-28.284-7.811-7.81-20.474-7.81-28.284 0z" fill="#ff9696"></path><path d="m133.678 410.965c-7.811-7.811-7.81-20.474 0-28.284l-17.678 17.677c-7.81 7.81-7.811 20.474 0 28.284 7.81 7.81 20.474 7.81 28.284 0l17.678-17.678c-7.81 7.811-20.474 7.811-28.284.001z" fill="#ff73a5"></path><path d="m133.678 354.396c7.81-7.811 20.474-7.811 28.284 0l-17.678-17.678c-7.81-7.81-20.474-7.81-28.284 0-7.81 7.81-7.81 20.474 0 28.284l17.678 17.678c-7.811-7.81-7.811-20.474 0-28.284z" fill="#ff73a5"></path><path d="m193.782 210.038-49.498 49.497-14.142-14.142c-7.81-7.81-20.474-7.81-28.284 0-7.81 7.81-7.81 20.474 0 28.284l28.284 28.284c7.81 7.81 20.474 7.81 28.284 0l63.64-63.64c7.81-7.81 7.81-20.474 0-28.284-7.81-7.809-20.474-7.809-28.284.001z" fill="#95e8c8"></path><path d="m127.011 265.697c4.523-4.523 10.379-6.898 16.304-7.132l-13.172-13.172c-7.81-7.81-20.474-7.81-28.284 0-7.81 7.81-7.81 20.474 0 28.284l20.968 20.968c-5.048-9.266-3.657-21.107 4.184-28.948z" fill="#82d9b6"></path><path d="m406 0h-300c-31.706 0-57.5 25.794-57.5 57.5v397c0 31.706 25.794 57.5 57.5 57.5h136c4.142 0 7.5-3.357 7.5-7.5s-3.358-7.5-7.5-7.5h-136c-23.435 0-42.5-19.065-42.5-42.5v-397c0-23.435 19.065-42.5 42.5-42.5h300c23.435 0 42.5 19.065 42.5 42.5v397c0 23.435-19.065 42.5-42.5 42.5h-136c-4.143 0-7.5 3.357-7.5 7.5s3.357 7.5 7.5 7.5h136c31.706 0 57.5-25.794 57.5-57.5v-397c0-31.706-25.794-57.5-57.5-57.5z"></path><path d="m227.369 78.054c-5.194-5.194-12.1-8.054-19.445-8.054s-14.251 2.86-19.445 8.054l-44.194 44.195-8.839-8.84c-5.194-5.193-12.1-8.054-19.445-8.054s-14.251 2.86-19.445 8.054c-10.722 10.723-10.722 28.169 0 38.891l28.285 28.286c5.194 5.193 12.1 8.054 19.445 8.054s14.251-2.86 19.445-8.054l63.639-63.641c5.194-5.193 8.055-12.1 8.055-19.445s-2.862-14.252-8.056-19.446zm-10.606 28.284-63.639 63.641c-2.361 2.36-5.5 3.661-8.839 3.661s-6.478-1.301-8.839-3.66l-28.284-28.286c-4.874-4.873-4.874-12.804 0-17.677 2.361-2.361 5.5-3.661 8.839-3.661s6.478 1.3 8.839 3.66l14.142 14.143c1.406 1.407 3.314 2.197 5.303 2.197s3.897-.79 5.303-2.196l49.497-49.498c2.361-2.36 5.5-3.661 8.839-3.661s6.478 1.301 8.839 3.661 3.661 5.5 3.661 8.839-1.3 6.477-3.661 8.837z"></path><path d="m221.282 350.86c0-7.346-2.86-14.252-8.055-19.446-5.194-5.193-12.1-8.054-19.445-8.054s-14.251 2.86-19.446 8.054l-12.375 12.375-12.375-12.375c-5.194-5.193-12.1-8.054-19.445-8.054s-14.251 2.86-19.445 8.054-8.055 12.101-8.055 19.446 2.86 14.252 8.055 19.446l12.374 12.374-12.374 12.373c-5.194 5.194-8.055 12.101-8.055 19.446s2.86 14.252 8.055 19.446c5.194 5.193 12.1 8.054 19.445 8.054s14.251-2.86 19.445-8.054l12.375-12.375 12.375 12.375c5.194 5.193 12.1 8.054 19.445 8.054s14.251-2.86 19.445-8.054 8.055-12.101 8.055-19.446-2.86-14.252-8.055-19.446l-12.374-12.374 12.374-12.373c5.195-5.194 8.056-12.1 8.056-19.446zm-18.661 8.839-17.678 17.677c-1.407 1.407-2.197 3.314-2.197 5.304s.79 3.896 2.197 5.304l17.678 17.678c2.361 2.36 3.661 5.5 3.661 8.839s-1.3 6.479-3.661 8.839-5.5 3.661-8.839 3.661-6.478-1.301-8.839-3.661l-17.678-17.678c-1.406-1.406-3.314-2.196-5.303-2.196s-3.897.79-5.303 2.196l-17.677 17.678c-2.361 2.36-5.5 3.661-8.839 3.661s-6.478-1.301-8.839-3.661-3.661-5.5-3.661-8.839 1.3-6.479 3.661-8.839l17.678-17.677c1.407-1.407 2.197-3.314 2.197-5.304s-.79-3.896-2.197-5.304l-17.678-17.678c-2.361-2.36-3.661-5.5-3.661-8.839s1.3-6.479 3.661-8.839 5.5-3.661 8.839-3.661 6.478 1.301 8.839 3.661l17.678 17.678c2.929 2.928 7.678 2.928 10.606 0l17.678-17.678c2.361-2.361 5.5-3.661 8.839-3.661s6.478 1.3 8.838 3.661c2.361 2.36 3.661 5.5 3.661 8.839s-1.301 6.479-3.661 8.839z"></path><path d="m227.369 204.734c-5.194-5.193-12.1-8.054-19.445-8.054s-14.251 2.86-19.445 8.054l-44.194 44.194-8.839-8.839c-5.194-5.193-12.1-8.055-19.445-8.055s-14.251 2.861-19.445 8.055c-10.722 10.723-10.722 28.169 0 38.892l28.284 28.284c5.194 5.193 12.1 8.054 19.445 8.054s14.251-2.86 19.445-8.054l63.64-63.64c10.721-10.722 10.721-28.168-.001-38.891zm-10.606 28.285-63.64 63.64c-2.361 2.361-5.5 3.661-8.839 3.661s-6.478-1.3-8.839-3.661l-28.284-28.284c-4.874-4.873-4.874-12.804 0-17.677 2.361-2.361 5.5-3.662 8.839-3.662s6.478 1.301 8.839 3.662l14.142 14.142c2.929 2.928 7.678 2.928 10.606 0l49.498-49.497c2.361-2.361 5.5-3.661 8.839-3.661s6.478 1.3 8.839 3.661c4.873 4.872 4.873 12.803 0 17.676z"></path><path d="m267.924 111.82h148.076c4.143 0 7.5-3.357 7.5-7.5s-3.357-7.5-7.5-7.5h-148.076c-4.143 0-7.5 3.357-7.5 7.5s3.357 7.5 7.5 7.5z"></path><path d="m267.924 161.819h74.038c4.143 0 7.5-3.357 7.5-7.5s-3.357-7.5-7.5-7.5h-74.038c-4.143 0-7.5 3.357-7.5 7.5s3.357 7.5 7.5 7.5z"></path><path d="m267.924 238.5h148.076c4.143 0 7.5-3.357 7.5-7.5s-3.357-7.5-7.5-7.5h-148.076c-4.143 0-7.5 3.357-7.5 7.5s3.357 7.5 7.5 7.5z"></path><path d="m267.924 288.5h74.038c4.143 0 7.5-3.357 7.5-7.5s-3.357-7.5-7.5-7.5h-74.038c-4.143 0-7.5 3.357-7.5 7.5s3.357 7.5 7.5 7.5z"></path><path d="m267.924 365.181h148.076c4.143 0 7.5-3.357 7.5-7.5s-3.357-7.5-7.5-7.5h-148.076c-4.143 0-7.5 3.357-7.5 7.5s3.357 7.5 7.5 7.5z"></path><path d="m267.924 415.181h74.038c4.143 0 7.5-3.357 7.5-7.5s-3.357-7.5-7.5-7.5h-74.038c-4.143 0-7.5 3.357-7.5 7.5s3.357 7.5 7.5 7.5z"></path></svg>