<svg height="512pt" viewBox="0 -16 512 512" width="512pt" xmlns="http://www.w3.org/2000/svg"><path d="m45 300c-8.289062 0-15-6.710938-15-15v-30c0-60.101562 23.40625-116.601562 65.902344-159.097656 5.859375-5.859375 15.351562-5.859375 21.210937 0s5.859375 15.351562 0 21.210937c-36.824219 36.828125-57.113281 85.796875-57.113281 137.886719v30c0 8.289062-6.710938 15-15 15zm0 0" fill="#3e5959"/><path d="m467 300c-8.289062 0-15-6.710938-15-15v-30c0-52.089844-20.289062-101.058594-57.113281-137.886719-5.859375-5.859375-5.859375-15.351562 0-21.210937s15.351562-5.859375 21.210937 0c42.496094 42.496094 65.902344 98.996094 65.902344 159.097656v30c0 8.289062-6.710938 15-15 15zm0 0" fill="#384949"/><path d="m105 450h-60c-24.8125 0-45-20.1875-45-45v-90c0-24.8125 20.1875-45 45-45h60c8.289062 0 15 6.710938 15 15v150c0 8.289062-6.710938 15-15 15zm0 0" fill="#ff7816"/><path d="m437.300781 74.699219c-48.300781-48-113.199219-74.699219-181.300781-74.699219s-133 26.699219-181.300781 74.699219c-5.699219 6-5.699219 15.300781 0 21.300781l22.800781 22.796875c15.902344 15.601563 41.101562 17.402344 58.800781 4.199219 28.5-21.597656 64.601563-32.398438 99.699219-32.398438s71.199219 10.800782 99.699219 32.398438c18 13.203125 43.199219 11.402344 58.800781-4.199219l22.800781-22.796875c5.699219-6 5.699219-15.300781 0-21.300781zm0 0" fill="#ff7816"/><path d="m467 450h-60c-8.289062 0-15-6.710938-15-15v-150c0-8.289062 6.710938-15 15-15h60c24.8125 0 45 20.1875 45 45v90c0 24.8125-20.1875 45-45 45zm0 0" fill="#ff4b00"/><path d="m347 420c-8.289062 0-15-6.710938-15-15v-90c0-8.289062 6.710938-15 15-15s15 6.710938 15 15v90c0 8.289062-6.710938 15-15 15zm0 0" fill="#979fef"/><path d="m286 480c-8.289062 0-15-6.710938-15-15v-210c0-8.289062 6.710938-15 15-15s15 6.710938 15 15v210c0 8.289062-6.710938 15-15 15zm0 0" fill="#979fef"/><path d="m226 480c-8.289062 0-15-6.710938-15-15v-210c0-8.289062 6.710938-15 15-15s15 6.710938 15 15v210c0 8.289062-6.710938 15-15 15zm0 0" fill="#b5baf3"/><path d="m165 420c-8.289062 0-15-6.710938-15-15v-90c0-8.289062 6.710938-15 15-15s15 6.710938 15 15v90c0 8.289062-6.710938 15-15 15zm0 0" fill="#b5baf3"/><path d="m437.300781 96-22.800781 22.796875c-15.601562 15.601563-40.800781 17.402344-58.800781 4.199219-28.5-21.597656-64.601563-32.398438-99.699219-32.398438v-90.597656c68.101562 0 133 26.699219 181.300781 74.699219 5.699219 6 5.699219 15.300781 0 21.300781zm0 0" fill="#ff4b00"/></svg>