<svg height="512pt" viewBox="0 0 480 512" width="512pt" xmlns="http://www.w3.org/2000/svg">

<path d="m373.489 292.602h-134.927c-13.346 0-24.164-10.818-24.164-24.164v-134.926c0-13.346 10.818-24.164 24.164-24.164s24.164 10.818 24.164 24.164v110.762h110.763c13.346 0 24.164 10.818 24.164 24.164-.001 13.345-10.819 24.164-24.164 24.164z" fill="#ff97c1"/><path d="m423.59 72.794c-46.936-46.942-109.344-72.794-175.725-72.794-65.057 0-126.995 25.601-172.962 70.103l-26.373-26.374c-10.314-10.314-27.95-3.009-27.95 11.578v88.766c0 9.042 7.33 16.373 16.373 16.373h88.766c14.586 0 21.891-17.636 11.577-27.95l-28.043-28.043c36.936-35.485 86.529-55.896 138.612-55.896 110.418 0 200.218 89.969 199.943 200.45-.273 109.623-89.812 199.162-199.436 199.436-103.116.257-188.364-77.952-199.272-178.155-1.345-12.356-11.64-21.788-24.069-21.788h-.193c-14.351 0-25.58 12.427-24.066 26.699 5.974 56.288 30.795 108.442 71.386 149.027 46.661 46.655 109.723 72.774 175.707 72.774 66.377 0 128.781-25.849 175.715-72.784s72.784-109.339 72.784-175.716c.001-65.983-26.119-129.046-72.774-175.706z" fill="#4487da"/><path d="m262.726 198.78c-7.576-2.636-15.701-4.087-24.164-4.087-8.462 0-16.588 1.451-24.164 4.087v69.658c0 13.346 10.818 24.164 24.164 24.164h69.658c2.636-7.576 4.087-15.701 4.087-24.164s-1.451-16.588-4.087-24.164h-45.494z" fill="#ff5d9c"/><circle cx="238.562" cy="268.438" fill="#4487da" r="43.745"/><g fill="#423e4f"><path d="m158.34 379.185c-4.143 0-7.5-3.358-7.5-7.5v-17.325c0-4.142 3.357-7.5 7.5-7.5s7.5 3.358 7.5 7.5v17.325c0 4.142-3.358 7.5-7.5 7.5z"/><path d="m338.66 379.185c-4.143 0-7.5-3.358-7.5-7.5v-17.325c0-4.142 3.357-7.5 7.5-7.5s7.5 3.358 7.5 7.5v17.325c0 4.142-3.357 7.5-7.5 7.5z"/><path d="m248.5 389.498c-11.277 0-22.002-4.885-29.424-13.402-2.722-3.123-2.396-7.86.727-10.582 3.122-2.721 7.859-2.397 10.582.727 4.572 5.247 11.176 8.256 18.115 8.256 6.94 0 13.544-3.009 18.116-8.256 2.722-3.124 7.457-3.448 10.582-.727 3.122 2.721 3.448 7.459.727 10.582-7.422 8.517-18.148 13.402-29.425 13.402z"/></g>

</svg>