<svg id="fi_6952859" height="512" viewBox="0 0 24 24" width="512" xmlns="http://www.w3.org/2000/svg" data-name="Layer 1"><rect fill="#00aa5b" height="19.5" rx="1.75" width="17.5" x="3.25" y="3.25"></rect><rect fill="#145638" height="4.5" rx="1.75" width="9.5" x="7.25" y="1.25"></rect><path d="m15 9.25h-2a.75.75 0 0 1 0-1.5h2a.75.75 0 0 1 0 1.5z" fill="#fff"></path><path d="m17 12.25h-4a.75.75 0 0 1 0-1.5h4a.75.75 0 0 1 0 1.5z" fill="#fff"></path><path d="m8 19.25a.694.694 0 0 1 -.12-.01.749.749 0 0 1 -.551-.4l-1-2a.75.75 0 1 1 1.342-.67l.534 1.069 2.265-2.269a.75.75 0 1 1 1.06 1.06l-3 3a.748.748 0 0 1 -.53.22z" fill="#fcc400"></path><path d="m8 12.25a.694.694 0 0 1 -.12-.01.749.749 0 0 1 -.551-.4l-1-2a.75.75 0 0 1 1.342-.67l.534 1.069 2.265-2.269a.75.75 0 0 1 1.06 1.06l-3 3a.748.748 0 0 1 -.53.22z" fill="#fcc400"></path><g fill="#fff"><path d="m15 16.25h-2a.75.75 0 0 1 0-1.5h2a.75.75 0 0 1 0 1.5z"></path><path d="m17 19.25h-4a.75.75 0 0 1 0-1.5h4a.75.75 0 0 1 0 1.5z"></path></g></svg>