<svg height="512" viewBox="0 0 24 24" width="512" xmlns="http://www.w3.org/2000/svg" id="fi_9356318"><g id="Layer_2" data-name="Layer 2"><path d="m18 20.75h-15a1.76 1.76 0 0 1 -1.75-1.75v-17a.76.76 0 0 1 .75-.75h16a1.76 1.76 0 0 1 1.75 1.75v4a.75.75 0 0 1 -1.5 0v-4a.25.25 0 0 0 -.25-.25h-15.25v16.25a.25.25 0 0 0 .25.25h15a.25.25 0 0 0 .25-.25v-2a.75.75 0 0 1 1.5 0v2a1.76 1.76 0 0 1 -1.75 1.75z" fill="#1565c0"></path><g fill="#29b6f6"><path d="m12.46 4.08-10.26-2.8a.77.77 0 0 0 -.66.12.79.79 0 0 0 -.29.6v17.17a1.75 1.75 0 0 0 1.44 1.72l9 1.63a1.63 1.63 0 0 0 .31 0 1.74 1.74 0 0 0 1.75-1.75v-15a1.74 1.74 0 0 0 -1.29-1.69z"></path><path d="m20 14.75a.74.74 0 0 1 -.53-.22.75.75 0 0 1 0-1.06l1.47-1.47-1.47-1.47a.75.75 0 0 1 1.06-1.06l2 2a.75.75 0 0 1 0 1.06l-2 2a.74.74 0 0 1 -.53.22z"></path><path d="m22 12.75h-6a.75.75 0 0 1 0-1.5h6a.75.75 0 0 1 0 1.5z"></path></g></g></svg>