<svg xmlns="http://www.w3.org/2000/svg" xmlns:svg="http://www.w3.org/2000/svg" version="1.1" id="svg2514" xml:space="preserve" width="682.66669" height="682.66669" viewBox="0 0 682.66669 682.66669"><defs id="defs2518"><clipPath clipPathUnits="userSpaceOnUse" id="clipPath2528"><path d="M 0,512 H 512 V 0 H 0 Z" id="path2526"/></clipPath></defs><g id="g2520" transform="matrix(1.3333333,0,0,-1.3333333,0,682.66667)"><g id="g2522"><g id="g2524" clip-path="url(#clipPath2528)"><g id="g2530" transform="translate(256.0001,135.112)"><path d="m 0,0 v 0 c -55.229,0 -100,44.771 -100,100 v 161.888 c 0,55.228 44.771,100 100,100 v 0 c 55.228,0 100,-44.772 100,-100 V 100 C 100,44.771 55.228,0 0,0 Z" style="fill:none;stroke:#000000;stroke-width:30;stroke-linecap:round;stroke-linejoin:round;stroke-miterlimit:10;stroke-dasharray:none;stroke-opacity:1" id="path2532"/></g><g id="g2534" transform="translate(157,286.028)"><path d="M 0,0 H 199" style="fill:none;stroke:#000000;stroke-width:30;stroke-linecap:round;stroke-linejoin:round;stroke-miterlimit:10;stroke-dasharray:none;stroke-opacity:1" id="path2536"/></g><g id="g2538" transform="translate(156,347.085)"><path d="M 0,0 H 36" style="fill:none;stroke:#000000;stroke-width:30;stroke-linecap:round;stroke-linejoin:round;stroke-miterlimit:10;stroke-dasharray:none;stroke-opacity:1" id="path2540"/></g><g id="g2542" transform="translate(156.5175,407.141)"><path d="M 0,0 H 35.482" style="fill:none;stroke:#000000;stroke-width:30;stroke-linecap:round;stroke-linejoin:round;stroke-miterlimit:10;stroke-dasharray:none;stroke-opacity:1" id="path2544"/></g><g id="g2546" transform="translate(320,347.085)"><path d="M 0,0 H 36" style="fill:none;stroke:#000000;stroke-width:30;stroke-linecap:round;stroke-linejoin:round;stroke-miterlimit:10;stroke-dasharray:none;stroke-opacity:1" id="path2548"/></g><g id="g2550" transform="translate(320,407.141)"><path d="M 0,0 H 35.483" style="fill:none;stroke:#000000;stroke-width:30;stroke-linecap:round;stroke-linejoin:round;stroke-miterlimit:10;stroke-dasharray:none;stroke-opacity:1" id="path2552"/></g><g id="g2554" transform="translate(156,15)"><path d="M 0,0 H 200" style="fill:none;stroke:#000000;stroke-width:30;stroke-linecap:round;stroke-linejoin:round;stroke-miterlimit:10;stroke-dasharray:none;stroke-opacity:1" id="path2556"/></g><g id="g2558" transform="translate(255.9957,75.056)"><path d="M 0,0 V -60.056" style="fill:none;stroke:#000000;stroke-width:30;stroke-linecap:round;stroke-linejoin:round;stroke-miterlimit:10;stroke-dasharray:none;stroke-opacity:1" id="path2560"/></g><g id="g2562" transform="translate(96,287.0289)"><path d="m 0,0 v -51.824 c 0,-88.448 71.634,-160.149 160,-160.149 v 0 c 88.366,0 160,71.701 160,160.149 V 0" style="fill:none;stroke:#000000;stroke-width:30;stroke-linecap:round;stroke-linejoin:round;stroke-miterlimit:10;stroke-dasharray:none;stroke-opacity:1" id="path2564"/></g><g id="g2566" transform="translate(416,286.028)"><path d="M 0,0 H 39" style="fill:none;stroke:#000000;stroke-width:30;stroke-linecap:round;stroke-linejoin:round;stroke-miterlimit:10;stroke-dasharray:none;stroke-opacity:1" id="path2568"/></g><g id="g2570" transform="translate(57,286.028)"><path d="M 0,0 H 39" style="fill:none;stroke:#000000;stroke-width:30;stroke-linecap:round;stroke-linejoin:round;stroke-miterlimit:10;stroke-dasharray:none;stroke-opacity:1" id="path2572"/></g></g></g></g></svg>