<svg xmlns="http://www.w3.org/2000/svg" id="Capa_1" enable-background="new 0 0 512 512" height="512" viewBox="0 0 512 512" width="512"><path d="m256 391.888c-63.411 0-115-51.589-115-115v-161.888c0-63.411 51.589-115 115-115s115 51.589 115 115v161.888c0 63.411-51.589 115-115 115z" fill="#8fd4ff"/><path d="m371 276.888v-161.888c0-63.411-51.589-115-115-115v391.888c63.411 0 115-51.589 115-115z" fill="#53b7f5"/><path d="m256 391.888c63.411 0 115-51.589 115-115v-65.916h-230v65.916c0 63.411 51.589 115 115 115z" fill="#1a82c7"/><path d="m256 391.888c63.411 0 115-51.589 115-115v-65.916h-115z" fill="#125994"/><path d="m192 149.915h-51v30h51c8.284 0 15-6.716 15-15s-6.716-15-15-15z" fill="#37a8e5"/><path d="m192 89.859h-48.224c-1.813 8.095-2.776 16.507-2.776 25.141v4.859h51c8.284 0 15-6.716 15-15s-6.716-15-15-15z" fill="#37a8e5"/><path d="m371 149.915h-51c-8.284 0-15 6.716-15 15s6.716 15 15 15h51z" fill="#1a82c7"/><path d="m305 104.859c0 8.284 6.716 15 15 15h51v-4.859c0-8.634-.963-17.046-2.776-25.141h-48.224c-8.284 0-15 6.716-15 15z" fill="#1a82c7"/><path d="m240.996 436.944h30v60.056h-30z" fill="#176cad"/><path d="m256 436.944h14.996v60.056h-14.996z" fill="#004373"/><path d="m356 512h-200c-8.284 0-15-6.716-15-15s6.716-15 15-15h200c8.284 0 15 6.716 15 15s-6.716 15-15 15z" fill="#37a8e5"/><path d="m356 482h-100v30h100c8.284 0 15-6.716 15-15s-6.716-15-15-15z" fill="#1a82c7"/><path d="m455 209.966h-39c-.483 0-.909.025-1.293.07-7.678.657-13.707 7.087-13.707 14.935v51.824c0 80.036-65.047 145.149-145 145.149s-145-65.113-145-145.149v-51.824c0-7.811-5.973-14.222-13.599-14.929-.429-.049-.894-.075-1.401-.075h-39c-8.284 0-15 6.716-15 15s6.716 15 15 15h24v36.829c0 96.578 78.505 175.149 175 175.149s175-78.571 175-175.149v-36.829h24c8.284 0 15-6.716 15-15 0-8.285-6.716-15.001-15-15.001z" fill="#37a8e5"/><path d="m431 276.795v-36.829h24c8.284 0 15-6.716 15-15s-6.716-15-15-15h-39c-.483 0-.909.025-1.293.07-7.678.657-13.707 7.087-13.707 14.935v51.824c0 80.036-65.047 145.149-145 145.149v30c96.495 0 175-78.571 175-175.149z" fill="#1a82c7"/></svg>