<svg id="fi_5667029" enable-background="new 0 0 512 512" height="512" viewBox="0 0 512 512" width="512" xmlns="http://www.w3.org/2000/svg"><g><path d="m400.6 0h-289.2c-25.487 0-47.133 20.556-47.133 47.133v427.63c0 20.532 16.712 37.236 37.253 37.236 10.34 0 20.088-4.032 27.448-11.354l110.235-110.204c4.423-4.447 10.53-6.975 16.797-6.975s12.374 2.528 16.797 6.975l110.235 110.204c7.36 7.322 17.108 11.354 27.448 11.354 20.541 0 37.253-16.704 37.253-37.236v-427.63c0-26.577-21.646-47.133-47.133-47.133z" fill="#ff6b61"></path><path d="m400.6 0h-144.6v383.467c6.267 0 12.374 2.528 16.797 6.975l110.235 110.204c7.36 7.322 17.108 11.354 27.448 11.354 20.541 0 37.253-16.704 37.253-37.236v-427.631c0-26.577-21.646-47.133-47.133-47.133z" fill="#ee3368"></path></g></svg>