<svg enable-background="new 0 0 512 512" height="512" viewBox="0 0 512 512" width="512" xmlns="http://www.w3.org/2000/svg" id="fi_9794596"><g id="_x31_5_Setting"><g><path d="m451.5 213.414h-36.665c-3.834-14.577-9.563-28.349-16.99-41.057l25.915-25.915c16.421-16.422 16.421-43.045 0-59.467-16.421-16.421-43.046-16.421-59.467 0l-25.929 25.929c-12.704-7.417-26.47-13.14-41.043-16.97v-36.7c0-23.224-18.826-42.05-42.049-42.05s-42.049 18.826-42.049 42.05v36.689c-14.574 3.829-28.343 9.553-41.049 16.972l-25.922-25.922c-16.421-16.422-43.045-16.422-59.467 0-16.422 16.421-16.422 43.044 0 59.466l25.914 25.914c-7.426 12.709-13.156 26.481-16.99 41.058h-36.665c-23.223 0-42.049 18.826-42.049 42.048v.002c0 23.222 18.826 42.049 42.049 42.049h36.665c3.834 14.578 9.562 28.35 16.989 41.058l-25.914 25.913c-16.421 16.422-16.421 43.046 0 59.468 16.421 16.421 43.046 16.421 59.467 0l25.922-25.923c12.706 7.42 26.476 13.142 41.05 16.972v36.691c0 23.223 18.826 42.049 42.049 42.049s42.049-18.826 42.049-42.049v-36.701c14.572-3.831 28.338-9.553 41.041-16.97l25.93 25.93c16.421 16.422 43.045 16.422 59.467.001v-.001c16.422-16.42 16.422-43.045 0-59.466l-25.915-25.915c7.427-12.708 13.156-26.48 16.991-41.057l36.665.001c23.223 0 42.049-18.827 42.049-42.05s-18.826-42.047-42.049-42.047zm-196.244 119.986c-43.046 0-77.939-34.893-77.939-77.939s34.893-77.939 77.939-77.939c43.077 0 77.97 34.893 77.97 77.939s-34.892 77.939-77.97 77.939z" fill="#ffc809"></path><path d="m59.765 309.572h28.013c3.01 9.45 6.816 18.642 11.379 27.476l-19.816 19.809c-20.785 20.886-20.785 54.874.023 75.779 20.966 20.966 54.828 20.97 75.798 0l19.794-19.79c8.805 4.541 18 8.347 27.473 11.368v28.017c0 29.541 24.035 53.576 53.572 53.576s53.572-24.035 53.572-53.576v-28.051c9.428-2.972 18.623-6.763 27.495-11.342l19.831 19.779c20.923 21.008 54.876 20.974 75.738.019 21.013-21.006 21.03-54.775 0-75.798l-19.771-19.771c4.534-8.737 8.332-17.94 11.364-27.495h28.006c29.537 0 53.572-24.031 53.572-53.572s-24.035-53.576-53.572-53.576h-28.006c-3.033-9.555-6.831-18.758-11.364-27.495l19.771-19.771c20.986-20.986 20.95-54.847.023-75.775-20.726-20.811-54.703-21.148-75.723-.034l-19.869 19.809c-8.872-4.579-18.067-8.369-27.495-11.338v-28.055c0-29.541-24.035-53.572-53.572-53.572s-53.572 24.031-53.572 53.572v28.017c-9.473 3.021-18.668 6.827-27.473 11.368l-19.794-19.786c-20.862-20.862-54.721-21.073-75.82.019-20.785 20.882-20.785 54.867.023 75.775l19.794 19.79c-4.564 8.835-8.369 18.026-11.379 27.476h-28.015c-29.537 0-53.572 24.035-53.572 53.576 0 29.651 23.92 53.572 53.572 53.572zm0-84.089h36.668c5.239 0 9.818-3.532 11.147-8.595 3.52-13.354 8.835-26.197 15.808-38.18 2.627-4.522 1.884-10.25-1.817-13.95l-25.881-25.885c-11.86-11.92-11.867-31.308-.023-43.206 11.56-11.548 31.631-11.556 43.191 0l25.904 25.9c3.693 3.693 9.42 4.444 13.954 1.813 11.92-6.936 24.77-12.254 38.192-15.804 5.059-1.34 8.58-5.915 8.58-11.147v-36.664c0-16.825 13.691-30.513 30.513-30.513s30.513 13.688 30.513 30.513v36.743c0 5.258 3.558 9.852 8.655 11.165 13.248 3.415 26.084 8.7 38.132 15.707 4.511 2.631 10.238 1.892 13.932-1.798l26.017-25.934c11.462-11.526 31.571-11.556 43.086.023 11.957 11.949 11.96 31.223 0 43.183l-25.904 25.904c-3.716 3.716-4.451 9.469-1.786 13.999 6.891 11.71 12.198 24.538 15.778 38.132 1.329 5.063 5.907 8.595 11.147 8.595h36.668c16.821 0 30.513 13.691 30.513 30.517s-13.691 30.513-30.513 30.513h-36.668c-5.239 0-9.818 3.532-11.147 8.595-3.58 13.59-8.887 26.422-15.778 38.139-2.665 4.526-1.929 10.284 1.786 13.995l25.904 25.9c11.967 11.975 12.055 31.132-.023 43.21-11.826 11.888-31.143 11.982-43.093-.03l-25.979-25.904c-3.693-3.689-9.428-4.44-13.939-1.801-12.047 7.003-24.876 12.291-38.139 15.711-5.089 1.314-8.647 5.907-8.647 11.165v36.739c0 16.825-13.691 30.517-30.513 30.517s-30.513-13.691-30.513-30.517v-36.664c0-5.232-3.52-9.807-8.58-11.147-13.421-3.55-26.272-8.869-38.192-15.804-4.514-2.622-10.238-1.903-13.954 1.813l-25.904 25.904c-11.825 11.817-31.121 12.066-43.168.019-11.86-11.92-11.86-31.308-.023-43.21l25.904-25.9c3.701-3.697 4.444-9.424 1.817-13.95-6.973-11.987-12.295-24.834-15.808-38.184-1.329-5.063-5.907-8.595-11.147-8.595h-36.67c-16.902 0-30.513-13.597-30.513-30.513 0-16.827 13.692-30.519 30.513-30.519z"></path><path d="m256 345.467c39.115 0 73.396-24.996 85.308-62.2 1.944-6.065-1.404-12.554-7.469-14.498-6.035-1.922-12.55 1.404-14.495 7.465-8.842 27.619-34.296 46.174-63.345 46.174-36.615 0-66.407-29.788-66.407-66.407s29.792-66.411 66.407-66.411c26.189 0 49.991 15.422 60.643 39.288 2.59 5.81 9.42 8.437 15.23 5.829 5.817-2.593 8.422-9.413 5.832-15.226-14.358-32.167-46.425-52.951-81.704-52.951-49.331 0-89.467 40.136-89.467 89.47 0 49.331 40.136 89.467 89.467 89.467z"></path></g></g></svg>