<svg id="fi_11473505" enable-background="new 0 0 512 512" viewBox="0 0 512 512" xmlns="http://www.w3.org/2000/svg"><g><g><g><path d="m490.977 490.187h-469.954c-7.469 0-13.523-6.054-13.523-13.523v-321.827c0-7.469 6.054-13.523 13.523-13.523s13.523 6.054 13.523 13.523v308.304h456.43c7.469 0 13.523 6.054 13.523 13.523s-6.053 13.523-13.522 13.523z" fill="#8ebac5"></path></g><g fill="#7ca1b1"><path d="m34.547 463.141v-308.304c0-7.469-6.054-13.523-13.523-13.523s-13.523 6.054-13.523 13.523v308.304z"></path><path d="m490.977 463.141h-28.455c7.469 0 13.523 6.054 13.523 13.523s-6.054 13.523-13.523 13.523h28.455c7.469 0 13.523-6.054 13.523-13.523s-6.054-13.523-13.523-13.523z"></path></g><path d="m140.029 463.141h-68.942v-116.906c0-8.179 6.63-14.809 14.809-14.809h39.324c8.179 0 14.809 6.63 14.809 14.809z" fill="#fe76a8"></path><path d="m247.092 463.141h-68.942v-207.934c0-8.179 6.63-14.809 14.809-14.809h39.324c8.179 0 14.809 6.63 14.809 14.809z" fill="#fee45a"></path><path d="m354.154 463.141h-68.942v-139.986c0-8.179 6.63-14.809 14.809-14.809h39.324c8.179 0 14.809 6.63 14.809 14.809z" fill="#cb97e7"></path><path d="m461.216 463.141h-68.942v-260.222c0-8.179 6.63-14.809 14.809-14.809h39.324c8.179 0 14.809 6.63 14.809 14.809z" fill="#978ecb"></path><path d="m140.03 346.23v116.91h-20.09v-116.91c0-8.17-6.63-14.8-14.81-14.8h20.09c8.18 0 14.81 6.63 14.81 14.8z" fill="#fe5694"></path><path d="m247.09 255.21v207.93h-20.09v-207.93c0-8.18-6.63-14.81-14.81-14.81h20.09c8.18 0 14.81 6.63 14.81 14.81z" fill="#ffd655"></path><path d="m354.15 323.16v139.98h-20.09v-139.98c0-8.18-6.63-14.81-14.81-14.81h20.09c8.18 0 14.81 6.63 14.81 14.81z" fill="#bd80e1"></path><path d="m461.22 202.92v260.22h-20.1v-260.22c0-8.18-6.63-14.81-14.81-14.81h20.1c8.18 0 14.81 6.63 14.81 14.81z" fill="#8379c1"></path><path d="m439.796 51.386-51.223-6.338c-7.398-.925-14.14 4.34-15.056 11.739s4.341 14.141 11.74 15.056l21.503 2.661-132.415 95.325-42.351-50.481c-4.413-5.259-12.07-6.371-17.794-2.58l-134.484 89.023c-6.217 4.115-7.921 12.491-3.806 18.709 2.598 3.924 6.892 6.05 11.27 6.05 2.558 0 5.146-.727 7.439-2.245l124.437-82.371 42.662 50.853c4.542 5.414 12.493 6.409 18.23 2.279l140.487-101.138-2.032 16.421c-.916 7.399 4.341 14.14 11.74 15.055.563.07 1.122.104 1.675.104 6.716 0 12.535-5.007 13.381-11.844l6.337-51.223c.916-7.4-4.34-14.14-11.74-15.055z" fill="#60b7ff"></path><g fill="#26a6fe"><path d="m194.401 148.976-116.947 77.413c2.591 2.698 6.122 4.16 9.726 4.16 2.558 0 5.146-.727 7.439-2.245l124.437-82.371h-14.547c-3.595.001-7.11 1.059-10.108 3.043z"></path><path d="m439.796 51.386-51.223-6.338c-2.871-.359-5.637.223-8.008 1.491l39.173 4.847c7.399.915 12.656 7.655 11.74 15.055l-6.337 51.223c-.353 2.852-1.58 5.378-3.368 7.363 2.099 2.336 5.009 3.962 8.371 4.377.563.07 1.122.104 1.675.104 6.716 0 12.535-5.007 13.381-11.844l6.337-51.223c.915-7.4-4.341-14.14-11.741-15.055z"></path><path d="m404.973 97.928c-2.988 0-5.901.939-8.327 2.685l-134.394 96.751c4.61 4.891 12.174 5.676 17.696 1.701l140.487-101.137z"></path></g></g><g><path d="m490.977 455.641h-22.26v-252.722c0-12.302-10.008-22.31-22.31-22.31h-39.324c-12.301 0-22.309 10.008-22.309 22.31v252.722h-23.12v-132.486c0-12.302-10.008-22.31-22.309-22.31h-39.324c-12.302 0-22.31 10.008-22.31 22.31v132.485h-23.12v-200.433c0-12.301-10.008-22.309-22.31-22.309h-39.324c-12.301 0-22.309 10.008-22.309 22.309v200.434h-92.061v-109.407c0-4.03 3.279-7.309 7.31-7.309h39.324c4.03 0 7.309 3.278 7.309 7.309v81.828c0 4.143 3.358 7.5 7.5 7.5s7.5-3.357 7.5-7.5v-81.828c0-12.301-10.008-22.309-22.309-22.309h-39.325c-12.302 0-22.31 10.008-22.31 22.309v109.406h-21.54v-300.803c0-11.593-9.431-21.023-21.023-21.023s-21.023 9.43-21.023 21.023v321.827c0 11.593 9.431 21.023 21.023 21.023h469.953c11.592 0 21.023-9.431 21.023-21.023s-9.43-21.023-21.022-21.023zm-91.203-252.722c0-4.03 3.279-7.31 7.309-7.31h39.324c4.031 0 7.31 3.279 7.31 7.31v252.722h-53.942v-252.722zm-107.063 120.236c0-4.03 3.279-7.31 7.31-7.31h39.324c4.03 0 7.309 3.279 7.309 7.31v132.485h-53.942v-132.485zm-107.062-67.948c0-4.03 3.279-7.309 7.309-7.309h39.324c4.03 0 7.31 3.278 7.31 7.309v200.434h-53.942v-200.434zm305.328 227.481h-469.954c-3.321 0-6.023-2.702-6.023-6.023v-321.828c0-3.321 2.702-6.023 6.023-6.023s6.023 2.702 6.023 6.023v308.304c0 4.143 3.358 7.5 7.5 7.5h456.43c3.321 0 6.023 2.702 6.023 6.023s-2.701 6.024-6.022 6.024z"></path><path d="m87.18 238.05c4.126 0 8.13-1.208 11.579-3.491l118.854-78.676 38.359 45.724c7.028 8.376 19.483 9.935 28.357 3.546l126.564-91.114c-2.164 27.114 37.987 31.511 41.749 4.546l6.337-51.223c.688-5.566-.832-11.068-4.281-15.492-3.449-4.423-8.415-7.238-13.981-7.927l-51.214-6.337c-29.162-2.74-31.885 40.678-2.654 41.991l-88.589 63.775c-3.362 2.42-4.125 7.107-1.705 10.469s7.107 4.125 10.469 1.705l104.119-74.955c2.504-1.803 3.649-4.956 2.884-7.945s-3.283-5.206-6.345-5.585l-21.503-2.661c-7.738-.827-6.235-12.999 1.474-11.908l51.224 6.338c1.59.196 3.009 1.001 3.995 2.265.985 1.264 1.419 2.835 1.223 4.426l-6.337 51.223c-.855 7.731-12.981 6.231-11.909-1.473l2.032-16.421c.366-2.959-1.055-5.854-3.62-7.373-2.564-1.521-5.786-1.375-8.206.365l-140.489 101.137c-2.535 1.824-6.094 1.38-8.103-1.013l-42.662-50.853c-2.451-2.922-6.705-3.54-9.885-1.434l-124.438 82.373c-.986.653-2.126.998-3.298.998-2.026 0-3.901-1.006-5.016-2.689-1.826-2.759-1.068-6.489 1.691-8.315l134.488-89.024c2.544-1.687 5.944-1.192 7.907 1.147l42.351 50.481c2.662 3.174 7.394 3.589 10.566.926 3.173-2.662 3.588-7.394.925-10.566l-42.351-50.482c-6.872-8.188-18.772-9.915-27.679-4.013l-134.486 89.022c-9.655 6.391-12.311 19.446-5.92 29.104 3.901 5.891 10.452 9.409 17.524 9.409z"></path><path d="m296.117 41.096h4.283v4.283c0 4.143 3.358 7.5 7.5 7.5s7.5-3.357 7.5-7.5v-4.283h4.283c4.142 0 7.5-3.357 7.5-7.5s-3.358-7.5-7.5-7.5h-4.283v-4.283c0-4.143-3.358-7.5-7.5-7.5s-7.5 3.357-7.5 7.5v4.283h-4.283c-4.142 0-7.5 3.357-7.5 7.5s3.358 7.5 7.5 7.5z"></path></g></g><g></g><g></g><g></g><g></g><g></g><g></g><g></g><g></g><g></g><g></g><g></g><g></g><g></g><g></g><g></g></svg>